<svg width="461" height="314" viewBox="0 0 461 314" fill="none" xmlns="http://www.w3.org/2000/svg">
<path d="M425.966 85.394H425.967L425.969 85.395C425.97 85.3952 425.972 85.3956 425.974 85.396C425.978 85.3969 425.986 85.3973 425.994 85.3989C426.012 85.4022 426.037 85.4071 426.069 85.4136C426.135 85.4266 426.231 85.4471 426.356 85.4741C426.605 85.5283 426.968 85.6119 427.428 85.7319C428.349 85.972 429.662 86.3566 431.237 86.937C434.388 88.0974 438.597 90.0423 442.832 93.1821C451.319 99.4732 459.882 110.543 460.274 129.604V129.631L460.272 129.659C458.621 148.144 450.058 158.239 441.875 163.698C437.792 166.422 433.815 167.986 430.857 168.869C429.377 169.31 428.151 169.582 427.292 169.744C426.863 169.825 426.525 169.878 426.293 169.912C426.177 169.928 426.088 169.939 426.026 169.947C425.996 169.951 425.972 169.954 425.956 169.956C425.948 169.956 425.942 169.957 425.938 169.958C425.935 169.958 425.933 169.958 425.932 169.958H425.931L425.877 169.461L425.93 169.958L425.903 169.961H405.419V208.273C405.419 211.429 403.854 214.075 401.585 216.244C399.32 218.409 396.32 220.135 393.352 221.472C390.379 222.812 387.41 223.774 385.188 224.401C384.076 224.714 383.149 224.944 382.499 225.096C382.174 225.172 381.918 225.229 381.742 225.267C381.655 225.286 381.587 225.3 381.541 225.309C381.519 225.314 381.501 225.317 381.489 225.32C381.484 225.321 381.479 225.322 381.476 225.323C381.474 225.323 381.473 225.323 381.472 225.323L381.471 225.324H381.47L380.873 225.442V107.83L381.15 107.691L425.654 85.439L425.803 85.3647L425.966 85.394ZM420.836 106.784C416.791 105.963 412.764 105.997 409.758 106.232C408.253 106.35 406.999 106.518 406.119 106.658C405.68 106.728 405.333 106.79 405.096 106.835C404.977 106.858 404.886 106.876 404.823 106.889C404.792 106.896 404.768 106.9 404.752 106.904C404.744 106.905 404.738 106.907 404.734 106.908C404.732 106.908 404.73 106.909 404.729 106.91H404.727C404.727 106.915 404.738 106.962 404.833 107.398L404.726 106.91L404.333 106.996V150.856L404.776 150.907H404.778C404.78 150.907 404.782 150.908 404.783 150.908C404.788 150.908 404.794 150.909 404.802 150.91C404.818 150.911 404.844 150.914 404.875 150.917C404.938 150.924 405.031 150.933 405.151 150.944C405.393 150.965 405.744 150.992 406.191 151.017C407.083 151.067 408.355 151.108 409.88 151.073C412.927 151.002 416.999 150.626 421.072 149.397C425.145 148.168 429.247 146.077 432.317 142.557C435.394 139.028 437.396 134.104 437.331 127.284C437.266 120.465 435.199 115.735 432.084 112.505C428.979 109.285 424.88 107.604 420.836 106.784Z" fill="white"/>
<path d="M306.116 149.02L283.6 161.44V208.273C283.6 208.273 280.848 258.47 325.88 258.47C370.913 258.47 368.411 208.273 368.411 208.273V116.418L345.895 129.614V208.273C345.895 208.273 345.059 236.735 325.88 236.218C306.701 235.7 306.116 208.273 306.116 208.273V149.02Z" fill="white"/>
<path d="M283.358 161.002C283.519 161.294 283.68 161.586 283.841 161.878C291.31 157.672 298.783 153.473 306.26 149.282L305.817 149.02C305.821 149.672 305.826 150.323 305.83 150.974C305.957 170.074 306.042 189.174 306.084 208.273C306.717 217.508 309.085 227.903 317.046 233.522C319.641 235.265 322.743 236.146 325.88 236.218C340.203 236.802 345.255 220.091 345.9 208.273C345.907 182.054 345.919 155.834 345.936 129.614L345.915 129.65C353.424 125.256 360.932 120.863 368.441 116.47L368.351 116.418C368.327 147.037 368.295 177.655 368.257 208.273C369.806 232.59 352.556 260.533 325.88 258.208C299.209 260.451 282.246 232.461 283.998 208.295L283.999 208.273C284.012 201.885 284.025 195.497 284.039 189.108C284.058 179.886 284.079 170.663 284.1 161.44C283.766 161.44 283.433 161.44 283.1 161.44C283.121 170.663 283.141 179.886 283.161 189.108C283.174 195.497 283.187 201.885 283.2 208.273L283.201 208.251C281.469 232.686 298.942 261.131 325.88 258.732C352.846 261.002 370.22 232.644 368.565 208.266C368.526 177.655 368.495 147.037 368.471 116.418L368.471 116.314L368.38 116.367C360.879 120.771 353.376 125.175 345.874 129.579L345.853 129.591L345.853 129.614C345.871 155.834 345.882 182.054 345.889 208.273C345.25 220.088 340.202 236.8 325.88 236.218C322.743 236.146 319.641 235.265 317.046 233.522C309.084 227.902 306.737 217.494 306.147 208.273C306.19 189.174 306.274 170.074 306.402 150.974C306.406 150.323 306.41 149.672 306.415 149.02L306.412 148.512L305.971 148.759C298.438 152.847 290.9 156.929 283.358 161.002ZM283.841 161.878L283.358 161.002L283.099 161.148L283.1 161.44H284.1L283.841 161.878Z" fill="white"/>
<path d="M120.557 225.092H133.494L142.809 219.917V188.867L146.432 185.762L164.026 209.05L184.208 198.7L161.439 171.014L202.579 130.649H173.859L142.809 159.111V61.0466C142.809 61.0466 120.557 70.1028 120.557 83.5576V225.092Z" fill="white"/>
<path d="M120.557 225.092H133.494L142.809 219.917V188.867L146.432 185.762L164.026 209.05L184.208 198.7L161.439 171.014L202.579 130.649H173.859L142.809 159.111V61.0466C142.809 61.0466 120.557 70.1028 120.557 83.5576M120.557 225.092C120.557 225.092 120.557 97.0124 120.557 83.5576M120.557 225.092V83.5576" stroke="white"/>
<path d="M236.734 101.929H215.258V184.21L236.734 173.343V101.929Z" fill="white" stroke="white"/>
<path d="M270.889 156.501L249.413 167.627V35.4079C249.413 26.093 270.889 13.9319 270.889 17.0369V156.501Z" fill="white" stroke="white"/>
<circle cx="225.867" cy="75.2777" r="13.731" fill="white" stroke="white"/>
<path d="M305.043 140.459L283.567 151.585V19.3656C283.567 10.0508 305.043 -2.1103 305.043 0.994653V140.459Z" fill="white" stroke="white"/>
<path d="M103.32 130.445L84.8633 141.382C81.4128 135.393 78.125 131.487 75 129.664C71.7448 127.58 67.5456 126.539 62.4023 126.539C56.0872 126.539 50.8464 128.329 46.6797 131.91C42.513 135.425 40.4297 139.852 40.4297 145.191C40.4297 152.548 45.8984 158.472 56.8359 162.964L71.875 169.117C84.1146 174.065 93.0664 180.119 98.7305 187.281C104.395 194.377 107.227 203.101 107.227 213.453C107.227 227.32 102.604 238.778 93.3594 247.828C84.0495 256.942 72.4935 261.5 58.6914 261.5C45.6055 261.5 34.7982 257.626 26.2695 249.879C17.8711 242.131 12.6302 231.226 10.5469 217.164L33.5938 212.086C34.6354 220.94 36.4583 227.06 39.0625 230.445C43.75 236.955 50.5859 240.211 59.5703 240.211C66.6667 240.211 72.5586 237.834 77.2461 233.082C81.9336 228.329 84.2773 222.307 84.2773 215.015C84.2773 212.086 83.8542 209.416 83.0078 207.007C82.2266 204.533 80.957 202.287 79.1992 200.269C77.5065 198.186 75.293 196.265 72.5586 194.507C69.8242 192.685 66.569 190.959 62.793 189.332L48.2422 183.277C27.6042 174.553 17.2852 161.793 17.2852 144.996C17.2852 133.668 21.6146 124.195 30.2734 116.578C38.9323 108.895 49.707 105.054 62.5977 105.054C79.9805 105.054 93.5547 113.518 103.32 130.445Z" fill="white"/>
</svg>
