<svg width="461" height="314" viewBox="0 0 461 314" fill="none" xmlns="http://www.w3.org/2000/svg">
<path d="M425.966 85.3942H425.967L425.969 85.3951C425.97 85.3954 425.972 85.3957 425.974 85.3961C425.978 85.397 425.986 85.3974 425.994 85.399C426.012 85.4023 426.037 85.4072 426.069 85.4137C426.135 85.4267 426.231 85.4472 426.356 85.4742C426.605 85.5284 426.968 85.612 427.428 85.7321C428.349 85.9722 429.662 86.3567 431.237 86.9371C434.388 88.0975 438.597 90.0425 442.832 93.1823C451.319 99.4733 459.882 110.543 460.274 129.604C460.666 148.684 452.088 158.805 443.377 164.13C439.035 166.785 434.674 168.241 431.401 169.034C429.763 169.43 428.395 169.661 427.434 169.794C426.953 169.86 426.575 169.901 426.315 169.926C426.185 169.939 426.084 169.947 426.016 169.953C425.981 169.955 425.955 169.957 425.937 169.959C425.928 169.959 425.921 169.959 425.916 169.96C425.914 169.96 425.912 169.96 425.91 169.961H425.908L425.877 169.462L425.907 169.961L425.893 169.962H405.419V208.273C405.419 211.43 403.854 214.075 401.585 216.244C399.32 218.409 396.32 220.135 393.352 221.472C390.379 222.812 387.41 223.774 385.188 224.401C384.076 224.715 383.149 224.944 382.499 225.096C382.174 225.172 381.918 225.23 381.742 225.267C381.655 225.286 381.587 225.3 381.541 225.309C381.519 225.314 381.501 225.318 381.489 225.32C381.484 225.321 381.479 225.322 381.476 225.323C381.474 225.323 381.473 225.323 381.472 225.323L381.471 225.324H381.47L380.873 225.442V107.83L381.15 107.691L425.654 85.4391L425.803 85.3649L425.966 85.3942ZM420.837 106.812C416.747 105.958 412.677 105.993 409.638 106.238C408.116 106.36 406.848 106.536 405.959 106.681C405.515 106.754 405.164 106.819 404.924 106.866C404.804 106.889 404.711 106.909 404.649 106.922C404.617 106.929 404.593 106.935 404.576 106.938C404.568 106.94 404.562 106.941 404.558 106.942C404.556 106.942 404.554 106.943 404.553 106.943H404.551C404.551 106.947 404.561 106.991 404.66 107.431L404.55 106.944L404.16 107.032V152.638L404.601 152.691L404.66 152.194C404.604 152.671 404.601 152.69 404.602 152.691H404.604C404.605 152.691 404.606 152.692 404.609 152.692C404.613 152.693 404.62 152.693 404.628 152.694C404.645 152.696 404.669 152.698 404.701 152.702C404.765 152.709 404.86 152.718 404.982 152.729C405.225 152.751 405.581 152.779 406.031 152.805C406.934 152.857 408.22 152.901 409.762 152.864C412.842 152.79 416.959 152.399 421.077 151.12C425.195 149.84 429.341 147.664 432.441 144.004C435.548 140.335 437.57 135.217 437.504 128.127C437.438 121.039 435.351 116.124 432.206 112.766C429.069 109.417 424.927 107.666 420.837 106.812Z" fill="black"/>
<path d="M306.116 149.02L283.6 161.44V208.273C283.6 208.273 280.848 258.47 325.88 258.47C370.913 258.47 368.411 208.273 368.411 208.273V116.418L345.895 129.615V208.273C345.895 208.273 345.059 236.736 325.88 236.218C306.701 235.701 306.116 208.273 306.116 208.273V149.02Z" fill="black"/>
<path d="M283.358 161.003C283.519 161.294 283.68 161.586 283.841 161.878C291.31 157.672 298.783 153.473 306.26 149.282L305.817 149.02C305.821 149.672 305.826 150.323 305.83 150.974C305.957 170.074 306.042 189.174 306.084 208.273C306.717 217.508 309.085 227.903 317.046 233.522C319.641 235.265 322.743 236.146 325.88 236.218C340.203 236.802 345.255 220.092 345.9 208.274C345.907 182.054 345.919 155.834 345.936 129.615L345.915 129.65C353.424 125.256 360.932 120.863 368.441 116.47L368.351 116.418C368.327 147.037 368.295 177.655 368.257 208.273C369.806 232.59 352.556 260.533 325.88 258.208C299.209 260.452 282.246 232.461 283.998 208.295L283.999 208.273C284.012 201.885 284.025 195.497 284.039 189.108C284.058 179.886 284.079 170.663 284.1 161.44C283.766 161.44 283.433 161.44 283.1 161.44C283.121 170.663 283.141 179.886 283.161 189.108C283.174 195.497 283.187 201.885 283.2 208.273L283.201 208.252C281.469 232.687 298.942 261.131 325.88 258.733C352.846 261.002 370.22 232.644 368.565 208.266C368.526 177.655 368.495 147.037 368.471 116.418L368.471 116.314L368.38 116.367C360.879 120.771 353.376 125.175 345.874 129.579L345.853 129.591L345.853 129.615C345.871 155.834 345.882 182.054 345.889 208.273C345.25 220.089 340.202 236.8 325.88 236.218C322.743 236.146 319.641 235.265 317.046 233.522C309.084 227.902 306.737 217.494 306.147 208.273C306.19 189.174 306.274 170.074 306.402 150.974C306.406 150.323 306.41 149.672 306.415 149.02L306.412 148.512L305.971 148.759C298.438 152.847 290.9 156.929 283.358 161.003ZM283.841 161.878L283.358 161.003L283.099 161.148L283.1 161.44H284.1L283.841 161.878Z" fill="black"/>
<path d="M120.557 225.092H133.494L142.809 219.917V188.867L146.432 185.762L164.026 209.05L184.208 198.7L161.439 171.014L202.579 130.65H173.859L142.809 159.112V61.0468C142.809 61.0468 120.557 70.1029 120.557 83.5577V225.092Z" fill="black"/>
<path d="M120.557 225.092H133.494L142.809 219.917V188.867L146.432 185.762L164.026 209.05L184.208 198.7L161.439 171.014L202.579 130.65H173.859L142.809 159.112V61.0468C142.809 61.0468 120.557 70.1029 120.557 83.5577M120.557 225.092C120.557 225.092 120.557 97.0125 120.557 83.5577M120.557 225.092V83.5577" stroke="black"/>
<path d="M236.734 101.929H215.258V184.21L236.734 173.343V101.929Z" fill="black" stroke="black"/>
<path d="M270.888 156.501L249.413 167.627V35.408C249.413 26.0931 270.888 13.9321 270.888 17.037V156.501Z" fill="black" stroke="black"/>
<circle cx="225.867" cy="75.2778" r="14.231" fill="black"/>
<path d="M305.043 140.459L283.567 151.585V19.3657C283.567 10.0508 305.043 -2.11024 305.043 0.994714V140.459Z" fill="black" stroke="black"/>
<path d="M103.32 130.445L84.8633 141.383C81.4128 135.393 78.125 131.487 75 129.664C71.7448 127.58 67.5456 126.539 62.4023 126.539C56.0872 126.539 50.8464 128.329 46.6797 131.91C42.513 135.426 40.4297 139.853 40.4297 145.191C40.4297 152.548 45.8984 158.472 56.8359 162.965L71.875 169.117C84.1146 174.065 93.0664 180.12 98.7305 187.281C104.395 194.377 107.227 203.101 107.227 213.453C107.227 227.32 102.604 238.778 93.3594 247.828C84.0495 256.942 72.4935 261.5 58.6914 261.5C45.6055 261.5 34.7982 257.626 26.2695 249.879C17.8711 242.131 12.6302 231.226 10.5469 217.164L33.5938 212.086C34.6354 220.94 36.4583 227.06 39.0625 230.445C43.75 236.955 50.5859 240.211 59.5703 240.211C66.6667 240.211 72.5586 237.834 77.2461 233.082C81.9336 228.329 84.2773 222.307 84.2773 215.015C84.2773 212.086 83.8542 209.416 83.0078 207.008C82.2266 204.534 80.957 202.288 79.1992 200.269C77.5065 198.186 75.293 196.265 72.5586 194.508C69.8242 192.685 66.569 190.959 62.793 189.332L48.2422 183.277C27.6042 174.553 17.2852 161.793 17.2852 144.996C17.2852 133.668 21.6146 124.195 30.2734 116.578C38.9323 108.896 49.707 105.054 62.5977 105.054C79.9805 105.054 93.5547 113.518 103.32 130.445Z" fill="black"/>
</svg>
