<svg width="150" height="150" viewBox="0 0 150 150" fill="none" xmlns="http://www.w3.org/2000/svg">
<circle cx="75" cy="75" r="75" fill="#CD7F32"/>
<circle cx="75" cy="75" r="60" fill="#B87333"/>
<path d="M73.0892 30.1836C73.6699 28.3043 76.3301 28.3043 76.9108 30.1836L85.1875 56.9674C85.4465 57.8054 86.2212 58.3769 87.0983 58.3769H114.087C116 58.3769 116.822 60.8049 115.302 61.9662L93.2971 78.7762C92.631 79.285 92.3529 80.1551 92.6004 80.956L100.964 108.022C101.539 109.882 99.3865 111.384 97.8391 110.201L76.2141 93.6814C75.4973 93.1338 74.5027 93.1338 73.7859 93.6814L52.1609 110.201C50.6135 111.384 48.461 109.882 49.0359 108.022L57.3996 80.956C57.6471 80.1551 57.369 79.285 56.7029 78.7762L34.6985 61.9662C33.1782 60.8049 33.9995 58.3769 35.9126 58.3769H62.9017C63.7788 58.3769 64.5535 57.8054 64.8125 56.9674L73.0892 30.1836Z" fill="white"/>
</svg>
